<?xml version="1.0" encoding="utf-8"?>
<!-- Generator: Adobe Illustrator 25.0.0, SVG Export Plug-In . SVG Version: 6.00 Build 0)  -->
<svg version="1.1" id="Layer_1" xmlns="http://www.w3.org/2000/svg" xmlns:xlink="http://www.w3.org/1999/xlink" x="0px" y="0px"
	 viewBox="0 0 800 800" style="enable-background:new 0 0 800 800;" xml:space="preserve">
<path d="M677.2,145.3c-51.5-22-109-44.8-165.5-49.3c-7,12.6-14.9,28.8-20.3,41.6c-61.9-9.2-122.8-9.2-183,0
	c-5.6-13.2-13.5-29.3-21.4-41.6c-49.1,4.5-113.8,27.9-164.8,49.3C16.8,300.5-13,453.6,4.8,603.1c68.3,50.4,134.5,81.1,199.9,101
	c18.6-16.9,30.6-44.8,43.8-67.5c0.6-1.3,0-3-1.5-3.4c-21.4-8.5-42.7-18.4-62.6-29.9c-1.5-0.9-1.7-3.2,0-4.3c5.2-2.8,9.5-9.5,14.9-10
	c132.4,61.5,274.7,57.2,404,0.2c2.8,3.9,16.9,9.6,12.4,14.1c-19.9,11.7-40.6,21.4-62.6,29.9c-1.5,0.6-2.1,2.1-1.3,3.6
	c12,23.5,25.8,45.5,40.6,66.2c0.6,0.9,1.7,1.3,2.8,0.9c65.3-20.3,131.7-50.8,200.3-101c19.9-172.1-27.4-324.5-117.2-456.9
	c0-0.4-0.6-0.9-1.1-0.9L677.2,145.3z M267.2,510.4c-95-0.1-95-162.2,0-162.3C362.3,348.2,362.3,510.3,267.2,510.4z M534.2,510.4
	c-95-0.1-95-162.2,0-162.3C629.2,348.2,629.2,510.3,534.2,510.4z"/>
</svg>
